<?xml version="1.0" encoding="UTF-8" standalone="no"?><!DOCTYPE svg PUBLIC "-//W3C//DTD SVG 1.1//EN" "http://www.w3.org/Graphics/SVG/1.1/DTD/svg11.dtd"><svg width="100%" height="100%" viewBox="0 0 149 149" version="1.1" xmlns="http://www.w3.org/2000/svg" xmlns:xlink="http://www.w3.org/1999/xlink" xml:space="preserve" xmlns:serif="http://www.serif.com/" style="fill-rule:evenodd;clip-rule:evenodd;stroke-linejoin:round;stroke-miterlimit:1.41421;"><rect id="icon" x="0.884" y="0.049" width="148" height="148" style="fill:none;"/><path d="M119.138,43.609l0.143,0.001l0.143,0.003l0.142,0.003l0.143,0.004l0.142,0.004l0.143,0.006l0.142,0.007l0.142,0.007l0.142,0.009l0.142,0.009l0.141,0.01l0.142,0.011l0.141,0.012l0.141,0.013l0.141,0.013l0.141,0.015l0.141,0.015l0.141,0.016l0.14,0.017l0.141,0.018l0.14,0.019l0.14,0.019l0.14,0.021l0.139,0.021l0.14,0.022l0.139,0.023l0.139,0.024l0.139,0.024l0.139,0.026l0.138,0.026l0.138,0.028l0.138,0.028l0.138,0.028l0.138,0.03l0.137,0.031l0.137,0.031l0.137,0.032l0.137,0.033l0.136,0.034l0.137,0.035l0.136,0.035l0.135,0.037l0.136,0.037l0.135,0.038l0.135,0.039l0.135,0.039l0.134,0.041l0.135,0.041l0.134,0.042l0.133,0.043l0.134,0.044l0.133,0.044l0.132,0.045l0.133,0.046l0.132,0.047l0.132,0.048l0.132,0.049l0.131,0.049l0.131,0.05l0.131,0.051l0.13,0.052l0.13,0.052l0.13,0.053l0.129,0.054l0.129,0.055l0.129,0.056l0.129,0.056l0.128,0.057l0.127,0.058l0.128,0.059l0.127,0.06l0.126,0.06l0.127,0.061l0.126,0.062l0.125,0.063l0.125,0.063l0.125,0.064l0.125,0.065l0.124,0.066l0.123,0.067l0.124,0.067l0.123,0.068l0.122,0.069l0.122,0.069l0.122,0.07l0.121,0.072l0.121,0.071l0.12,0.073l0.12,0.073l0.12,0.074l0.119,0.075l0.119,0.076l0.118,0.076l0.118,0.077l0.118,0.078l0.117,0.078l0.116,0.08l0.116,0.08l0.116,0.08l0.115,0.082l0.115,0.082l0.114,0.083l0.114,0.084l0.113,0.084l0.113,0.085l0.112,0.086l0.112,0.087l0.112,0.087l0.11,0.088l0.111,0.089l0.11,0.089l0.109,0.09l0.109,0.091l0.108,0.092l0.108,0.092l0.107,0.093l0.107,0.094l0.106,0.094l0.106,0.096l0.105,0.095l0.105,0.097l0.104,0.097l0.104,0.098l0.103,0.099l0.102,0.099l0.102,0.1l0.102,0.101l0.1,0.101l0.1,0.102l0.1,0.103l0.099,0.103l0.097,0.104l0.098,0.104l0.096,0.104l0.096,0.106l0.095,0.105l0.095,0.107l0.093,0.106l0.094,0.108l0.092,0.108l0.091,0.108l0.091,0.109l0.091,0.109l0.089,0.11l0.089,0.11l0.088,0.111l0.087,0.112l0.087,0.111l0.086,0.113l0.085,0.113l0.084,0.113l0.084,0.114l0.083,0.114l0.082,0.115l0.081,0.115l0.081,0.115l0.08,0.117l0.079,0.116l0.079,0.117l0.078,0.118l0.077,0.117l0.076,0.119l0.076,0.119l0.074,0.119l0.075,0.119l0.073,0.12l0.072,0.121l0.072,0.121l0.071,0.121l0.071,0.122l0.069,0.122l0.069,0.122l0.068,0.123l0.067,0.123l0.067,0.124l0.065,0.124l0.065,0.125l0.065,0.124l0.063,0.126l0.063,0.125l0.062,0.126l0.061,0.126l0.06,0.127l0.059,0.127l0.059,0.127l0.058,0.128l0.057,0.128l0.057,0.129l0.056,0.128l0.054,0.129l0.054,0.13l0.054,0.13l0.052,0.13l0.052,0.13l0.051,0.131l0.05,0.131l0.049,0.131l0.049,0.132l0.047,0.132l0.047,0.132l0.046,0.132l0.046,0.133l0.044,0.133l0.044,0.134l0.043,0.133l0.042,0.134l0.041,0.134l0.04,0.135l0.04,0.135l0.039,0.135l0.038,0.135l0.037,0.135l0.036,0.136l0.036,0.136l0.035,0.136l0.033,0.137l0.033,0.136l0.033,0.137l0.031,0.138l0.031,0.137l0.029,0.138l0.029,0.137l0.028,0.139l0.027,0.138l0.027,0.138l0.025,0.139l0.025,0.139l0.024,0.139l0.023,0.139l0.022,0.14l0.021,0.139l0.021,0.14l0.019,0.14l0.019,0.14l0.018,0.14l0.017,0.141l0.016,0.141l0.015,0.14l0.015,0.141l0.013,0.141l0.013,0.142l0.012,0.141l0.011,0.142l0.01,0.141l0.009,0.142l0.008,0.142l0.008,0.142l0.007,0.142l0.005,0.143l0.005,0.142l0.004,0.142l0.003,0.143l0.002,0.143l0.002,0.143l0,0.143l0,41l0,0.142l-0.002,0.143l-0.002,0.143l-0.003,0.143l-0.004,0.142l-0.005,0.143l-0.005,0.142l-0.007,0.142l-0.008,0.142l-0.008,0.142l-0.009,0.142l-0.01,0.141l-0.011,0.142l-0.012,0.141l-0.013,0.142l-0.013,0.141l-0.015,0.141l-0.015,0.141l-0.016,0.14l-0.017,0.141l-0.018,0.14l-0.019,0.14l-0.019,0.14l-0.021,0.14l-0.021,0.14l-0.022,0.139l-0.023,0.139l-0.024,0.139l-0.025,0.139l-0.025,0.139l-0.027,0.138l-0.027,0.139l-0.028,0.138l-0.029,0.137l-0.029,0.138l-0.031,0.137l-0.031,0.138l-0.033,0.137l-0.033,0.136l-0.033,0.137l-0.035,0.136l-0.036,0.136l-0.036,0.136l-0.037,0.135l-0.038,0.136l-0.039,0.135l-0.04,0.134l-0.04,0.135l-0.041,0.134l-0.042,0.134l-0.043,0.134l-0.044,0.133l-0.044,0.133l-0.046,0.133l-0.046,0.132l-0.047,0.133l-0.047,0.131l-0.049,0.132l-0.049,0.131l-0.05,0.131l-0.051,0.131l-0.052,0.13l-0.052,0.131l-0.054,0.129l-0.054,0.13l-0.054,0.129l-0.056,0.128l-0.057,0.129l-0.057,0.128l-0.058,0.128l-0.059,0.127l-0.059,0.127l-0.06,0.127l-0.061,0.126l-0.062,0.126l-0.063,0.125l-0.063,0.126l-0.065,0.125l-0.065,0.124l-0.065,0.124l-0.067,0.124l-0.067,0.123l-0.068,0.123l-0.069,0.122l-0.069,0.122l-0.071,0.122l-0.071,0.121l-0.072,0.121l-0.072,0.121l-0.073,0.12l-0.075,0.119l-0.074,0.12l-0.076,0.118l-0.076,0.119l-0.077,0.118l-0.078,0.117l-0.079,0.117l-0.079,0.116l-0.08,0.117l-0.081,0.115l-0.081,0.115l-0.082,0.115l-0.083,0.114l-0.084,0.114l-0.084,0.113l-0.085,0.113l-0.086,0.113l-0.087,0.111l-0.087,0.112l-0.088,0.111l-0.089,0.11l-0.089,0.11l-0.091,0.109l-0.091,0.109l-0.091,0.109l-0.092,0.107l-0.094,0.108l-0.093,0.107l-0.095,0.106l-0.095,0.106l-0.096,0.105l-0.096,0.104l-0.098,0.105l-0.097,0.103l-0.099,0.103l-0.1,0.103l-0.1,0.102l-0.1,0.101l-0.102,0.101l-0.102,0.1l-0.102,0.099l-0.103,0.099l-0.104,0.098l-0.104,0.097l-0.105,0.097l-0.105,0.095l-0.106,0.096l-0.106,0.094l-0.107,0.094l-0.107,0.093l-0.108,0.092l-0.108,0.092l-0.109,0.091l-0.109,0.09l-0.11,0.089l-0.111,0.089l-0.11,0.088l-0.112,0.087l-0.112,0.087l-0.112,0.086l-0.113,0.085l-0.113,0.084l-0.114,0.084l-0.114,0.083l-0.115,0.082l-0.115,0.082l-0.116,0.08l-0.116,0.08l-0.116,0.08l-0.117,0.078l-0.118,0.078l-0.118,0.077l-0.118,0.076l-0.119,0.076l-0.119,0.075l-0.12,0.074l-0.12,0.073l-0.12,0.073l-0.121,0.072l-0.121,0.071l-0.122,0.07l-0.122,0.069l-0.122,0.069l-0.123,0.068l-0.124,0.067l-0.123,0.067l-0.124,0.066l-0.125,0.065l-0.125,0.064l-0.125,0.063l-0.125,0.063l-0.126,0.062l-0.127,0.061l-0.126,0.06l-0.127,0.06l-0.128,0.059l-0.127,0.058l-0.128,0.057l-0.129,0.056l-0.129,0.056l-0.129,0.055l-0.129,0.054l-0.13,0.053l-0.13,0.053l-0.13,0.051l-0.131,0.051l-0.131,0.05l-0.131,0.05l-0.132,0.048l-0.132,0.048l-0.132,0.047l-0.133,0.046l-0.132,0.045l-0.133,0.044l-0.134,0.044l-0.133,0.043l-0.134,0.042l-0.135,0.041l-0.134,0.041l-0.135,0.039l-0.135,0.039l-0.135,0.038l-0.136,0.037l-0.135,0.037l-0.136,0.035l-0.137,0.035l-0.136,0.034l-0.137,0.033l-0.137,0.032l-0.137,0.031l-0.137,0.031l-0.138,0.03l-0.138,0.028l-0.138,0.029l-0.138,0.027l-0.138,0.026l-0.139,0.026l-0.139,0.024l-0.139,0.024l-0.139,0.023l-0.14,0.022l-0.139,0.021l-0.14,0.021l-0.14,0.019l-0.14,0.019l-0.141,0.018l-0.14,0.017l-0.141,0.016l-0.141,0.016l-0.141,0.014l-0.141,0.014l-0.141,0.012l-0.141,0.012l-0.142,0.011l-0.141,0.01l-0.142,0.009l-0.142,0.009l-0.142,0.007l-0.142,0.007l-0.143,0.006l-0.142,0.004l-0.143,0.004l-0.142,0.004l-0.143,0.002l-0.143,0.001l-0.143,0.001l-44.095,0l0,-87l44.095,0l0.143,0Zm-40.238,4l0,79l40.089,0l0.124,-0.001l0.118,-0.001l0.118,-0.002l0.118,-0.002l0.118,-0.004l0.117,-0.004l0.118,-0.004l0.117,-0.006l0.119,-0.006l0.117,-0.007l0.115,-0.007l0.118,-0.009l0.119,-0.009l0.114,-0.01l0.116,-0.01l0.118,-0.011l0.118,-0.013l0.116,-0.012l0.115,-0.013l0.115,-0.014l0.116,-0.015l0.117,-0.016l0.116,-0.016l0.115,-0.017l0.116,-0.017l0.114,-0.018l0.114,-0.019l0.118,-0.021l0.113,-0.02l0.114,-0.021l0.115,-0.021l0.115,-0.023l0.113,-0.023l0.114,-0.024l0.114,-0.025l0.112,-0.025l0.116,-0.026l0.113,-0.027l0.11,-0.026l0.113,-0.028l0.115,-0.029l0.112,-0.03l0.111,-0.029l0.112,-0.031l0.114,-0.032l0.109,-0.031l0.111,-0.033l0.112,-0.034l0.111,-0.034l0.11,-0.034l0.11,-0.036l0.112,-0.036l0.11,-0.037l0.109,-0.037l0.11,-0.038l0.108,-0.039l0.109,-0.039l0.108,-0.04l0.11,-0.042l0.108,-0.041l0.107,-0.041l0.109,-0.044l0.107,-0.043l0.107,-0.044l0.108,-0.045l0.105,-0.045l0.106,-0.045l0.107,-0.047l0.107,-0.048l0.106,-0.048l0.103,-0.047l0.106,-0.05l0.105,-0.05l0.103,-0.05l0.105,-0.052l0.102,-0.051l0.104,-0.053l0.104,-0.053l0.103,-0.054l0.103,-0.054l0.102,-0.055l0.102,-0.055l0.101,-0.057l0.1,-0.056l0.102,-0.058l0.1,-0.058l0.1,-0.058l0.1,-0.06l0.1,-0.06l0.099,-0.061l0.099,-0.061l0.099,-0.062l0.096,-0.061l0.099,-0.064l0.097,-0.063l0.097,-0.065l0.097,-0.064l0.096,-0.066l0.097,-0.067l0.094,-0.065l0.097,-0.069l0.094,-0.067l0.093,-0.068l0.095,-0.07l0.094,-0.07l0.093,-0.07l0.092,-0.07l0.093,-0.072l0.092,-0.072l0.092,-0.074l0.09,-0.072l0.091,-0.074l0.091,-0.075l0.089,-0.074l0.09,-0.077l0.09,-0.076l0.088,-0.076l0.088,-0.078l0.089,-0.079l0.087,-0.078l0.086,-0.078l0.087,-0.08l0.086,-0.081l0.086,-0.081l0.084,-0.081l0.085,-0.082l0.084,-0.083l0.084,-0.083l0.083,-0.084l0.083,-0.084l0.082,-0.085l0.082,-0.085l0.081,-0.086l0.08,-0.086l0.08,-0.086l0.079,-0.087l0.079,-0.089l0.078,-0.087l0.077,-0.088l0.077,-0.088l0.076,-0.089l0.076,-0.09l0.075,-0.09l0.074,-0.09l0.074,-0.09l0.074,-0.093l0.072,-0.09l0.072,-0.093l0.072,-0.092l0.071,-0.092l0.071,-0.095l0.069,-0.093l0.068,-0.093l0.069,-0.094l0.069,-0.096l0.067,-0.095l0.066,-0.095l0.067,-0.096l0.065,-0.097l0.065,-0.097l0.064,-0.096l0.064,-0.097l0.063,-0.098l0.063,-0.099l0.062,-0.099l0.06,-0.097l0.061,-0.1l0.06,-0.099l0.059,-0.1l0.059,-0.1l0.058,-0.101l0.057,-0.101l0.057,-0.101l0.056,-0.101l0.056,-0.102l0.055,-0.103l0.054,-0.101l0.054,-0.103l0.053,-0.104l0.052,-0.103l0.052,-0.104l0.051,-0.104l0.051,-0.105l0.05,-0.104l0.049,-0.105l0.048,-0.105l0.048,-0.106l0.048,-0.106l0.046,-0.105l0.046,-0.106l0.045,-0.108l0.045,-0.107l0.044,-0.107l0.043,-0.106l0.043,-0.108l0.042,-0.109l0.042,-0.109l0.04,-0.107l0.04,-0.109l0.04,-0.109l0.038,-0.109l0.039,-0.111l0.037,-0.109l0.036,-0.109l0.037,-0.112l0.035,-0.109l0.035,-0.111l0.034,-0.111l0.033,-0.111l0.033,-0.111l0.032,-0.112l0.032,-0.111l0.03,-0.112l0.03,-0.112l0.03,-0.113l0.028,-0.113l0.028,-0.112l0.028,-0.113l0.026,-0.113l0.026,-0.113l0.025,-0.115l0.025,-0.113l0.024,-0.113l0.023,-0.114l0.022,-0.115l0.022,-0.114l0.021,-0.114l0.02,-0.116l0.02,-0.115l0.019,-0.114l0.018,-0.116l0.018,-0.114l0.017,-0.117l0.016,-0.115l0.015,-0.115l0.015,-0.116l0.014,-0.117l0.014,-0.116l0.012,-0.116l0.012,-0.116l0.011,-0.117l0.011,-0.116l0.01,-0.118l0.009,-0.116l0.008,-0.117l0.008,-0.118l0.007,-0.117l0.006,-0.118l0.005,-0.117l0.005,-0.117l0.004,-0.118l0.003,-0.118l0.003,-0.117l0.002,-0.118l0.001,-0.118l0,-0.124l0,-40.989l0,-0.124l-0.001,-0.118l-0.002,-0.118l-0.003,-0.117l-0.003,-0.118l-0.004,-0.118l-0.005,-0.117l-0.005,-0.117l-0.006,-0.118l-0.007,-0.117l-0.008,-0.118l-0.008,-0.117l-0.009,-0.116l-0.01,-0.117l-0.011,-0.117l-0.011,-0.117l-0.012,-0.116l-0.012,-0.116l-0.014,-0.116l-0.014,-0.117l-0.015,-0.116l-0.015,-0.115l-0.016,-0.115l-0.017,-0.117l-0.018,-0.114l-0.018,-0.115l-0.019,-0.116l-0.019,-0.114l-0.021,-0.115l-0.021,-0.115l-0.022,-0.114l-0.022,-0.115l-0.023,-0.113l-0.024,-0.114l-0.025,-0.114l-0.025,-0.114l-0.026,-0.113l-0.026,-0.113l-0.028,-0.113l-0.028,-0.112l-0.028,-0.113l-0.03,-0.113l-0.03,-0.112l-0.031,-0.112l-0.031,-0.111l-0.032,-0.111l-0.033,-0.112l-0.033,-0.111l-0.034,-0.112l-0.035,-0.11l-0.035,-0.109l-0.036,-0.111l-0.037,-0.11l-0.037,-0.11l-0.039,-0.11l-0.038,-0.109l-0.04,-0.109l-0.04,-0.108l-0.04,-0.109l-0.042,-0.108l-0.042,-0.109l-0.043,-0.108l-0.043,-0.106l-0.044,-0.107l-0.044,-0.107l-0.046,-0.107l-0.046,-0.107l-0.047,-0.106l-0.047,-0.105l-0.048,-0.105l-0.049,-0.106l-0.049,-0.105l-0.049,-0.104l-0.051,-0.105l-0.051,-0.104l-0.052,-0.104l-0.052,-0.103l-0.053,-0.103l-0.054,-0.104l-0.054,-0.101l-0.055,-0.103l-0.056,-0.102l-0.056,-0.101l-0.057,-0.101l-0.057,-0.101l-0.058,-0.1l-0.059,-0.1l-0.059,-0.1l-0.06,-0.1l-0.061,-0.1l-0.061,-0.098l-0.062,-0.099l-0.062,-0.098l-0.063,-0.097l-0.064,-0.098l-0.064,-0.097l-0.065,-0.096l-0.065,-0.097l-0.067,-0.096l-0.066,-0.095l-0.067,-0.095l-0.068,-0.095l-0.069,-0.094l-0.069,-0.095l-0.07,-0.093l-0.07,-0.093l-0.071,-0.093l-0.072,-0.092l-0.072,-0.093l-0.073,-0.091l-0.072,-0.091l-0.075,-0.091l-0.075,-0.091l-0.074,-0.089l-0.075,-0.089l-0.077,-0.09l-0.077,-0.088l-0.077,-0.088l-0.078,-0.088l-0.079,-0.088l-0.079,-0.087l-0.08,-0.086l-0.08,-0.086l-0.081,-0.086l-0.082,-0.085l-0.082,-0.085l-0.083,-0.084l-0.083,-0.084l-0.084,-0.083l-0.084,-0.083l-0.085,-0.082l-0.084,-0.081l-0.086,-0.081l-0.086,-0.081l-0.086,-0.079l-0.087,-0.079l-0.088,-0.079l-0.088,-0.078l-0.088,-0.078l-0.088,-0.076l-0.09,-0.076l-0.09,-0.077l-0.089,-0.074l-0.09,-0.074l-0.092,-0.075l-0.091,-0.073l-0.091,-0.073l-0.092,-0.072l-0.092,-0.071l-0.093,-0.071l-0.094,-0.071l-0.093,-0.069l-0.093,-0.069l-0.095,-0.069l-0.096,-0.068l-0.095,-0.068l-0.094,-0.065l-0.096,-0.066l-0.097,-0.066l-0.097,-0.065l-0.097,-0.064l-0.097,-0.064l-0.097,-0.063l-0.1,-0.063l-0.097,-0.061l-0.099,-0.061l-0.1,-0.062l-0.099,-0.059l-0.1,-0.06l-0.1,-0.058l-0.099,-0.058l-0.101,-0.057l-0.103,-0.058l-0.1,-0.055l-0.102,-0.056l-0.103,-0.055l-0.102,-0.054l-0.103,-0.054l-0.104,-0.053l-0.104,-0.053l-0.102,-0.051l-0.103,-0.051l-0.105,-0.051l-0.105,-0.05l-0.106,-0.049l-0.105,-0.049l-0.104,-0.047l-0.107,-0.048l-0.105,-0.046l-0.108,-0.046l-0.107,-0.046l-0.106,-0.044l-0.107,-0.044l-0.107,-0.043l-0.107,-0.043l-0.109,-0.042l-0.109,-0.042l-0.107,-0.04l-0.108,-0.04l-0.111,-0.04l-0.108,-0.039l-0.111,-0.038l-0.11,-0.038l-0.108,-0.036l-0.112,-0.036l-0.11,-0.036l-0.109,-0.034l-0.112,-0.034l-0.112,-0.034l-0.111,-0.032l-0.111,-0.033l-0.11,-0.03l-0.114,-0.032l-0.113,-0.03l-0.11,-0.029l-0.113,-0.028l-0.113,-0.028l-0.114,-0.028l-0.113,-0.026l-0.114,-0.026l-0.112,-0.025l-0.114,-0.025l-0.114,-0.024l-0.113,-0.023l-0.115,-0.023l-0.113,-0.021l-0.116,-0.021l-0.115,-0.021l-0.114,-0.019l-0.116,-0.019l-0.116,-0.019l-0.114,-0.017l-0.115,-0.017l-0.116,-0.016l-0.116,-0.016l-0.115,-0.014l-0.117,-0.015l-0.117,-0.013l-0.116,-0.013l-0.116,-0.011l-0.116,-0.012l-0.116,-0.01l-0.118,-0.01l-0.117,-0.009l-0.116,-0.008l-0.119,-0.008l-0.117,-0.007l-0.117,-0.006l-0.117,-0.006l-0.116,-0.004l-0.119,-0.004l-0.12,-0.004l-0.116,-0.002l-0.118,-0.002l-0.118,-0.001l-0.124,0l-40.089,0Z" style="fill:#209cee;"/><path d="M54.314,17.491l0.05,0.001l0.049,0.003l0.05,0.004l0.049,0.006l0.05,0.006l0.049,0.008l0.049,0.009l0.049,0.01l0.049,0.011l0.048,0.013l0.049,0.013l0.048,0.015l0.047,0.016l0.048,0.017l0.047,0.019l0.046,0.019l0.047,0.021l0.045,0.022l0.046,0.023l0.045,0.024l0.044,0.026l0.044,0.027l0.043,0.027l0.043,0.029l0.042,0.031l0.042,0.031l0.041,0.033l0.041,0.033l0.039,0.035l0.039,0.037l0.039,0.037l9.159,9.159l0.037,0.038l0.036,0.039l0.035,0.04l0.034,0.04l0.032,0.041l0.032,0.042l0.03,0.042l0.029,0.043l0.028,0.044l0.027,0.043l0.025,0.045l0.024,0.045l0.024,0.045l0.021,0.046l0.021,0.046l0.02,0.047l0.018,0.047l0.017,0.047l0.016,0.048l0.015,0.048l0.014,0.048l0.012,0.049l0.012,0.048l0.01,0.049l0.009,0.049l0.007,0.05l0.007,0.049l0.005,0.05l0.004,0.049l0.003,0.05l0.002,0.05l0.001,0.049l-0.001,0.05l-0.002,0.05l-0.003,0.05l-0.004,0.049l-0.005,0.05l-0.007,0.049l-0.007,0.049l-0.009,0.05l-0.01,0.049l-0.012,0.048l-0.012,0.049l-0.014,0.048l-0.015,0.048l-0.016,0.048l-0.017,0.047l-0.018,0.047l-0.02,0.047l-0.021,0.046l-0.021,0.046l-0.024,0.045l-0.024,0.045l-0.025,0.044l-0.027,0.044l-0.028,0.044l-0.029,0.042l-0.03,0.043l-0.032,0.041l-0.032,0.041l-0.034,0.041l-0.035,0.04l-0.036,0.039l-0.037,0.038l-2.933,2.933l-0.039,0.037l-0.039,0.036l-0.039,0.035l-0.041,0.034l-0.041,0.033l-0.042,0.031l-0.042,0.03l-0.043,0.029l-0.043,0.028l-0.044,0.027l-0.044,0.025l-0.045,0.025l-0.046,0.023l-0.045,0.022l-0.047,0.021l-0.046,0.019l-0.047,0.018l-0.048,0.018l-0.047,0.016l-0.048,0.014l-0.049,0.014l-0.048,0.013l-0.049,0.011l-0.049,0.01l-0.049,0.009l-0.049,0.007l-0.05,0.007l-0.049,0.005l-0.05,0.004l-0.049,0.003l-0.05,0.002l-0.05,0.001l-0.05,-0.001l-0.049,-0.002l-0.05,-0.003l-0.05,-0.004l-0.049,-0.005l-0.05,-0.007l-0.049,-0.007l-0.049,-0.009l-0.049,-0.01l-0.049,-0.011l-0.048,-0.013l-0.048,-0.014l-0.048,-0.014l-0.048,-0.016l-0.047,-0.018l-0.047,-0.018l-0.047,-0.019l-0.046,-0.021l-0.046,-0.022l-0.046,-0.023l-0.044,-0.025l-0.045,-0.025l-0.044,-0.027l-0.043,-0.028l-0.043,-0.029l-0.042,-0.03l-0.042,-0.031l-0.041,-0.033l-0.04,-0.034l-0.04,-0.035l-0.039,-0.036l-0.038,-0.037l-9.159,-9.159l-0.038,-0.038l-0.036,-0.039l-0.035,-0.04l-0.034,-0.041l-0.032,-0.041l-0.032,-0.041l-0.03,-0.043l-0.029,-0.042l-0.028,-0.044l-0.026,-0.044l-0.026,-0.044l-0.024,-0.045l-0.023,-0.045l-0.022,-0.046l-0.021,-0.046l-0.02,-0.047l-0.018,-0.047l-0.017,-0.047l-0.016,-0.048l-0.015,-0.048l-0.014,-0.048l-0.012,-0.049l-0.011,-0.048l-0.01,-0.049l-0.009,-0.05l-0.008,-0.049l-0.007,-0.049l-0.005,-0.05l-0.004,-0.049l-0.003,-0.05l-0.002,-0.05l0,-0.05l0,-0.049l0.002,-0.05l0.003,-0.05l0.004,-0.049l0.005,-0.05l0.007,-0.049l0.008,-0.05l0.009,-0.049l0.01,-0.049l0.011,-0.048l0.012,-0.049l0.014,-0.048l0.015,-0.048l0.016,-0.048l0.017,-0.047l0.018,-0.047l0.02,-0.047l0.021,-0.046l0.022,-0.046l0.023,-0.045l0.024,-0.045l0.026,-0.045l0.026,-0.043l0.028,-0.044l0.029,-0.043l0.03,-0.042l0.032,-0.042l0.032,-0.041l0.034,-0.04l0.035,-0.04l0.036,-0.039l0.038,-0.038l2.933,-2.933l0.038,-0.037l0.039,-0.037l0.04,-0.035l0.04,-0.033l0.041,-0.033l0.042,-0.031l0.042,-0.031l0.043,-0.029l0.043,-0.027l0.044,-0.027l0.045,-0.026l0.045,-0.024l0.045,-0.023l0.046,-0.022l0.046,-0.021l0.047,-0.019l0.047,-0.019l0.047,-0.017l0.048,-0.016l0.048,-0.015l0.048,-0.013l0.048,-0.013l0.049,-0.011l0.049,-0.01l0.049,-0.009l0.049,-0.008l0.05,-0.006l0.049,-0.006l0.05,-0.004l0.05,-0.003l0.049,-0.001l0.05,-0.001l0.05,0.001Zm-2.439,5.005l8.615,8.616l2.389,-2.39l-8.615,-8.615l-2.389,2.389Z" style="fill:#209cee;"/><path d="M89.816,30.189c-0.81,-0.81 -0.81,-2.124 0,-2.933l9.159,-9.159c0.809,-0.809 2.123,-0.809 2.933,0l2.933,2.933c0.809,0.809 0.809,2.123 0,2.933l-9.159,9.159c-0.81,0.809 -2.124,0.809 -2.933,0l-2.933,-2.933Z" style="fill:#209cee;"/><path d="M75.9,43.609l0,87c0,0 -23.038,0 -45.126,0c-6.1,0 -11.951,-2.424 -16.264,-6.737c-4.313,-4.313 -6.736,-10.163 -6.736,-16.263c0,-12.665 0,-28.336 0,-41c0,-6.1 2.423,-11.951 6.736,-16.264c4.313,-4.313 10.163,-6.736 16.264,-6.736l45.126,0Zm-24.975,43.5c6.623,0 12,5.377 12,12c0,6.623 -5.377,12 -12,12c-6.623,0 -12,-5.377 -12,-12c0,-6.623 5.377,-12 12,-12Z" style="fill:#209cee;"/><circle cx="106.448" cy="99.109" r="12" style="fill:#209cee;"/></svg>